<svg width="41" height="41" viewBox="0 0 41 41" fill="none" xmlns="http://www.w3.org/2000/svg">
<g clip-path="url(#clip0_82_16)">
<path d="M40.4051 11.7628C40.3729 10.104 40.0585 8.46269 39.4755 6.90934C38.9605 5.57995 38.1739 4.37262 37.1658 3.36454C36.1577 2.35646 34.9504 1.5698 33.621 1.05485C32.0674 0.472507 30.4263 0.158174 28.7675 0.125251C26.6265 0.0234845 25.9464 0 20.5186 0C15.0907 0 14.4028 0.0234845 12.2696 0.117423C10.6108 0.149702 8.96955 0.464055 7.41618 1.04702C6.07842 1.54912 4.86721 2.33878 3.86806 3.36024C2.8521 4.35989 2.0652 5.56812 1.56168 6.90151C0.979379 8.45507 0.665048 10.0962 0.632087 11.755C0.53032 13.895 0.506836 14.58 0.506836 20.0078C0.506836 25.4357 0.53032 26.1197 0.624259 28.2529C0.656756 29.9118 0.971443 31.553 1.55483 33.1063C2.06941 34.4355 2.8556 35.6426 3.86316 36.6507C4.87073 37.6588 6.07751 38.4456 7.40639 38.9608C8.95995 39.5431 10.6011 39.8574 12.2599 39.8904C14.393 39.9883 15.0731 40.0078 20.5049 40.0078C25.9367 40.0078 26.6167 39.9843 28.7499 39.8904C30.4088 39.8583 32.05 39.5439 33.6034 38.9608C34.9331 38.4468 36.1408 37.6605 37.149 36.6525C38.1572 35.6445 38.9436 34.437 39.4579 33.1073C40.04 31.5537 40.3543 29.9126 40.3875 28.2538C40.4853 26.1197 40.5049 25.4406 40.5049 20.0088C40.5049 14.577 40.499 13.895 40.4051 11.7628ZM36.8022 28.0973C36.7902 29.3651 36.5584 30.6212 36.1172 31.8098C35.7838 32.6727 35.2736 33.4565 34.6194 34.1106C33.9653 34.7648 33.1815 35.275 32.3186 35.6084C31.1298 36.0489 29.8738 36.2806 28.6061 36.2934C26.4954 36.3912 25.8662 36.4108 20.5245 36.4108C15.1827 36.4108 14.5457 36.3873 12.4428 36.2934C11.175 36.2815 9.9189 36.0497 8.73033 35.6084C7.86026 35.2902 7.07322 34.7798 6.42787 34.1152C5.76551 33.4699 5.25539 32.6849 4.93465 31.8176C4.49421 30.6288 4.26248 29.3728 4.24968 28.1051C4.15183 25.9944 4.13226 25.3652 4.13226 20.0235C4.13226 14.6817 4.15574 14.0447 4.24968 11.9419C4.26154 10.6741 4.4933 9.41793 4.93465 8.22937C5.2545 7.35875 5.76929 6.57285 6.43961 5.9318C7.08484 5.26956 7.86979 4.75974 8.73718 4.43955C9.92603 3.99923 11.182 3.76751 12.4497 3.75459C14.5604 3.65673 15.1896 3.63716 20.5313 3.63716C25.8731 3.63716 26.5101 3.66065 28.6129 3.75459C29.8807 3.76656 31.1368 3.99832 32.3254 4.43955C33.1937 4.75795 33.979 5.26801 34.623 5.9318C35.2847 6.5773 35.7941 7.36219 36.1143 8.22937C36.5546 9.41821 36.7863 10.6742 36.7992 11.9419C36.8971 14.0525 36.9166 14.6817 36.9166 20.0235C36.9166 25.3652 36.8961 25.9866 36.8022 28.0973Z" fill="white"/>
<path d="M20.5147 9.73047C18.4826 9.73047 16.4962 10.3331 14.8065 11.462C13.1169 12.591 11.8 14.1957 11.0223 16.0731C10.2447 17.9505 10.0412 20.0163 10.4377 22.0094C10.8341 24.0024 11.8126 25.8332 13.2496 27.2701C14.6865 28.707 16.5172 29.6856 18.5103 30.082C20.5033 30.4784 22.5692 30.275 24.4466 29.4973C26.324 28.7197 27.9287 27.4028 29.0576 25.7131C30.1866 24.0235 30.7892 22.037 30.7892 20.0049C30.7876 17.2805 29.7046 14.668 27.7781 12.7415C25.8516 10.815 23.2392 9.73202 20.5147 9.73047ZM20.5147 26.6745C19.1963 26.6745 17.9075 26.2836 16.8112 25.5512C15.7149 24.8188 14.8605 23.7778 14.3558 22.5598C13.8511 21.3418 13.7189 20.0015 13.9759 18.7084C14.2329 17.4152 14.8676 16.2273 15.7996 15.2949C16.7317 14.3624 17.9193 13.7272 19.2123 13.4697C20.5053 13.2121 21.8457 13.3437 23.0639 13.8478C24.2821 14.352 25.3235 15.206 26.0564 16.3019C26.7893 17.3979 27.1808 18.6865 27.1814 20.0049C27.1816 20.8806 27.0094 21.7478 26.6745 22.5569C26.3396 23.366 25.8486 24.1013 25.2295 24.7206C24.6104 25.3399 23.8754 25.8313 23.0665 26.1665C22.2575 26.5018 21.3904 26.6744 20.5147 26.6745Z" fill="white"/>
<path d="M33.5975 9.32439C33.5971 9.79881 33.4561 10.2625 33.1923 10.6568C32.9284 11.051 32.5536 11.3583 32.1152 11.5396C31.6768 11.7209 31.1945 11.7682 30.7292 11.6755C30.264 11.5828 29.8366 11.3542 29.5012 11.0187C29.1658 10.6831 28.9374 10.2557 28.8449 9.7904C28.7524 9.32509 28.7999 8.8428 28.9814 8.40447C29.1629 7.96615 29.4702 7.59147 29.8646 7.32779C30.259 7.06412 30.7228 6.92329 31.1972 6.9231C31.5125 6.92297 31.8248 6.985 32.1161 7.10564C32.4075 7.22629 32.6722 7.40317 32.8951 7.62619C33.118 7.84921 33.2948 8.11399 33.4153 8.40538C33.5359 8.69677 33.5977 9.00906 33.5975 9.32439Z" fill="white"/>
</g>
<defs>
<clipPath id="clip0_82_16">
<rect width="40" height="40.0078" fill="white" transform="translate(0.506836)"/>
</clipPath>
</defs>
</svg>
