<svg width="32" height="42" viewBox="0 0 32 42" fill="#ffffff" xmlns="http://www.w3.org/2000/svg">
<path d="M15.8138 0.5C11.8882 0.504499 8.12456 2.06596 5.34868 4.84184C2.5728 7.61772 1.01134 11.3813 1.00684 15.307C1.00684 25.44 14.2578 40.315 14.8218 40.943C14.9469 41.0821 15.0999 41.1934 15.2708 41.2696C15.4417 41.3457 15.6267 41.3851 15.8138 41.3851C16.0009 41.3851 16.186 41.3457 16.3569 41.2696C16.5278 41.1934 16.6807 41.0821 16.8058 40.943C17.3698 40.315 30.6208 25.443 30.6208 15.307C30.6163 11.3813 29.0549 7.61772 26.279 4.84184C23.5031 2.06596 19.7395 0.504499 15.8138 0.5V0.5ZM15.8138 38.01C11.3538 32.71 3.67284 22.261 3.67284 15.31C3.67284 13.7156 3.98687 12.1369 4.59702 10.6638C5.20716 9.19083 6.10146 7.85241 7.22885 6.72502C8.35625 5.59762 9.69466 4.70332 11.1677 4.09318C12.6407 3.48304 14.2195 3.169 15.8138 3.169C17.4082 3.169 18.987 3.48304 20.46 4.09318C21.933 4.70332 23.2714 5.59762 24.3988 6.72502C25.5262 7.85241 26.4205 9.19083 27.0307 10.6638C27.6408 12.1369 27.9548 13.7156 27.9548 15.31C27.9548 22.262 20.2748 32.711 15.8138 38.01Z" fill="white" stroke="white"/>
<path d="M15.8143 7.85706C14.3408 7.85706 12.9004 8.29399 11.6753 9.1126C10.4501 9.93122 9.49523 11.0948 8.93136 12.4561C8.36749 13.8174 8.21995 15.3153 8.50741 16.7605C8.79487 18.2056 9.50442 19.5331 10.5463 20.575C11.5882 21.6169 12.9157 22.3264 14.3608 22.6139C15.806 22.9014 17.3039 22.7538 18.6652 22.19C20.0266 21.6261 21.1901 20.6712 22.0087 19.4461C22.8273 18.2209 23.2643 16.7805 23.2643 15.3071C23.2621 13.3318 22.4765 11.4381 21.0799 10.0414C19.6832 8.64476 17.7895 7.85917 15.8143 7.85706ZM15.8143 20.09C14.8683 20.09 13.9435 19.8095 13.157 19.284C12.3704 18.7584 11.7574 18.0114 11.3953 17.1374C11.0333 16.2634 10.9386 15.3018 11.1232 14.3739C11.3077 13.4461 11.7633 12.5939 12.4322 11.925C13.1011 11.2561 13.9533 10.8005 14.8811 10.616C15.809 10.4314 16.7707 10.5261 17.6446 10.8881C18.5186 11.2502 19.2656 11.8632 19.7912 12.6498C20.3167 13.4363 20.5973 14.3611 20.5973 15.3071C20.5957 16.5751 20.0912 17.7908 19.1946 18.6874C18.298 19.584 17.0823 20.0885 15.8143 20.09V20.09Z" fill="white" stroke="white"/>
</svg>
