<svg width="41" height="41" viewBox="0 0 41 41" fill="none" xmlns="http://www.w3.org/2000/svg">
<g clip-path="url(#clip0_82_13)">
<path d="M34.5989 5.8134C30.8502 2.09077 25.7815 0.00158691 20.4985 0.00158691C15.2154 0.00158691 10.1467 2.09077 6.39806 5.8134C4.53349 7.64143 3.05211 9.82288 2.04057 12.2302C1.02903 14.6375 0.507618 17.2223 0.506836 19.8335L0.506836 19.8434C0.528461 23.1206 1.36553 26.3408 2.94254 29.2137L0.561028 40.0384L11.5099 37.5476C14.2987 38.9496 17.3765 39.6807 20.498 39.6827H20.5088C25.797 39.6921 30.8726 37.6011 34.6196 33.8694C36.4857 32.0401 37.9678 29.8566 38.9789 27.447C39.9901 25.0374 40.5099 22.4502 40.508 19.837C40.5061 17.2239 39.9824 14.6374 38.9677 12.2293C37.953 9.82119 36.4677 7.63992 34.5989 5.8134ZM20.5088 36.5553H20.499C17.6954 36.5539 14.9364 35.8547 12.4706 34.5207L11.9533 34.2398L4.67178 35.8991L6.24829 28.7122L5.94383 28.1861C4.45134 25.6562 3.65232 22.7776 3.62734 19.8404C3.65654 16.5208 4.6646 13.2836 6.52526 10.5342C8.38592 7.78492 11.0164 5.64573 14.0873 4.38464C17.1582 3.12354 20.533 2.7966 23.7889 3.44476C27.0447 4.09292 30.037 5.68738 32.3908 8.0284C33.9652 9.56977 35.2173 11.409 36.0741 13.4389C36.9309 15.4688 37.3753 17.6489 37.3814 19.8522C37.3512 24.3022 35.5584 28.5588 32.3959 31.6896C29.2334 34.8204 24.9589 36.57 20.5088 36.5553Z" fill="white"/>
<path d="M15.0639 11.0938H14.187C13.9553 11.0997 13.7274 11.1535 13.5175 11.2517C13.3076 11.3498 13.1202 11.4903 12.9672 11.6642C12.4504 12.1517 12.0411 12.7417 11.7653 13.3965C11.4896 14.0512 11.3536 14.7563 11.366 15.4666C11.5167 17.1875 12.1675 18.8267 13.2381 20.1823C13.4667 20.4868 16.403 25.237 21.0527 27.0648C24.9171 28.5832 25.7034 28.2816 26.5419 28.2058C27.1801 28.0821 27.7851 27.825 28.3172 27.4515C28.8494 27.078 29.2966 26.5963 29.6299 26.0381C29.9291 25.3572 30.0219 24.6035 29.8969 23.8704C29.7826 23.6802 29.4771 23.5669 29.02 23.3383C28.5628 23.1097 26.3202 21.9884 25.9004 21.8357C25.4807 21.683 25.1762 21.6081 24.8708 22.0643C24.5653 22.5205 23.6677 23.5748 23.4007 23.8792C23.1337 24.1837 22.8666 24.2221 22.4095 23.9935C21.0673 23.4513 19.8282 22.6828 18.746 21.7214C17.7363 20.7847 16.8701 19.7044 16.1753 18.5152C15.9083 18.059 16.1468 17.8126 16.3724 17.585C16.5783 17.3811 16.8552 17.1022 17.0848 16.8362C17.2693 16.6053 17.4196 16.3492 17.5311 16.0755C17.5917 15.9498 17.62 15.811 17.6132 15.6716C17.6065 15.5322 17.5651 15.3967 17.4927 15.2774C17.3784 15.0488 16.5005 12.7944 16.0936 11.8928C15.7507 11.1302 15.39 11.1075 15.0639 11.0938Z" fill="white"/>
</g>
<defs>
<clipPath id="clip0_82_13">
<rect width="40" height="40.0384" fill="white" transform="translate(0.506836)"/>
</clipPath>
</defs>
</svg>
